<svg width="20" height="20" viewBox="0 0 20 20" fill="none" xmlns="http://www.w3.org/2000/svg">
<g id="print">
<path id="Icon" d="M5 16.6667H14.3333V14H5V16.6667ZM5 10H14.3333V6H12.6667C12.3889 6 12.1528 5.90278 11.9583 5.70833C11.7639 5.51389 11.6667 5.27778 11.6667 5V3.33333H5V10ZM17 10.6667C17 10.4861 16.934 10.3299 16.8021 10.1979C16.6701 10.066 16.5139 10 16.3333 10C16.1528 10 15.9965 10.066 15.8646 10.1979C15.7326 10.3299 15.6667 10.4861 15.6667 10.6667C15.6667 10.8472 15.7326 11.0035 15.8646 11.1354C15.9965 11.2674 16.1528 11.3333 16.3333 11.3333C16.5139 11.3333 16.6701 11.2674 16.8021 11.1354C16.934 11.0035 17 10.8472 17 10.6667ZM18.3333 10.6667V15C18.3333 15.0903 18.3003 15.1684 18.2344 15.2344C18.1684 15.3003 18.0903 15.3333 18 15.3333H15.6667V17C15.6667 17.2778 15.5694 17.5139 15.375 17.7083C15.1806 17.9028 14.9444 18 14.6667 18H4.66667C4.38889 18 4.15278 17.9028 3.95833 17.7083C3.76389 17.5139 3.66667 17.2778 3.66667 17V15.3333H1.33333C1.24306 15.3333 1.16493 15.3003 1.09896 15.2344C1.03299 15.1684 1 15.0903 1 15V10.6667C1 10.1181 1.19618 9.64757 1.58854 9.25521C1.9809 8.86285 2.45139 8.66667 3 8.66667H3.66667V3C3.66667 2.72222 3.76389 2.48611 3.95833 2.29167C4.15278 2.09722 4.38889 2 4.66667 2H11.6667C11.9444 2 12.25 2.06944 12.5833 2.20833C12.9167 2.34722 13.1806 2.51389 13.375 2.70833L14.9583 4.29167C15.1528 4.48611 15.3194 4.75 15.4583 5.08333C15.5972 5.41667 15.6667 5.72222 15.6667 6V8.66667H16.3333C16.8819 8.66667 17.3524 8.86285 17.7448 9.25521C18.1372 9.64757 18.3333 10.1181 18.3333 10.6667Z" fill="black"/>
</g>
</svg>
